<svg width="587" height="553" viewBox="0 0 587 553" fill="none" xmlns="http://www.w3.org/2000/svg">
<g opacity="0.13" clip-path="url(#clip0_12_170)">
<g opacity="0.3">
<path d="M8.60726 294.61C4.19446 133.905 137.55 0.165171 297.758 0.933269C446.702 -0.0607404 575.509 117.315 586.202 266.191C586.895 275.649 587.166 285.137 586.91 294.603C586.39 275.709 584.191 256.868 580.162 238.426C542.111 63.1417 355.072 -36.6433 188.726 31.371C82.1263 74.633 10.8212 179.742 8.60726 294.61Z" fill="#B3B3B3"/>
</g>
<g style="mix-blend-mode:multiply">
<g style="mix-blend-mode:multiply">
<path d="M523.707 294.61C528.572 259.835 525.537 223.908 513.647 190.164C485.995 107.247 407.913 46.7406 321.449 38.0505C369.124 42.4709 415.511 60.5287 453.637 89.6486C522.404 142.293 555.553 218.742 555.636 294.61H523.715H523.707Z" fill="#FF6B6C"/>
</g>
<g style="mix-blend-mode:multiply">
<path d="M294.829 36.9965C242.395 37.5839 190.255 56.6358 150.344 90.6806C88.0149 142.708 62.0126 220.67 72.0129 294.603H39.3763C39.5118 156.398 153.454 37.9002 294.837 36.989L294.829 36.9965Z" fill="#FF6B6C"/>
</g>
</g>
<g style="mix-blend-mode:multiply">
<path d="M523.707 294.611C516.365 347.112 491.018 396.986 450.941 432.77C364.364 511.674 231.303 511.734 144.696 432.657C103.219 395.246 78.9483 345.9 72.0204 294.618H39.3762C39.3612 306.448 40.182 318.422 41.8989 330.47C50.7396 397.34 87.7137 460.106 142.121 500.551C214.947 556.351 318.038 567.918 401.753 530.62C502.712 485.98 555.734 390.766 555.628 294.618H523.707V294.611Z" fill="#FF6B6C"/>
</g>
<g style="mix-blend-mode:multiply">
<path d="M483.45 47.5389C489.285 47.5389 494.015 42.8088 494.015 36.9738C494.015 31.1389 489.285 26.4087 483.45 26.4087C477.615 26.4087 472.885 31.1389 472.885 36.9738C472.885 42.8088 477.615 47.5389 483.45 47.5389Z" fill="#FF6B6C"/>
</g>
<g style="mix-blend-mode:multiply">
<path d="M35.9499 386.662C44.8791 386.662 52.1176 379.423 52.1176 370.494C52.1176 361.565 44.8791 354.326 35.9499 354.326C27.0208 354.326 19.7822 361.565 19.7822 370.494C19.7822 379.423 27.0208 386.662 35.9499 386.662Z" fill="#FF6B6C"/>
</g>
<path opacity="0.5" d="M535.846 157.385C546.767 157.385 555.621 148.531 555.621 137.61C555.621 126.689 546.767 117.835 535.846 117.835C524.925 117.835 516.071 126.689 516.071 137.61C516.071 148.531 524.925 157.385 535.846 157.385Z" fill="#B3B3B3"/>
<g opacity="0.5">
<g style="mix-blend-mode:multiply">
<path d="M19.7747 336.359C8.87072 336.359 -6.10352e-05 327.488 -6.10352e-05 316.584C-6.10352e-05 305.68 8.87072 296.81 19.7747 296.81C30.6787 296.81 39.5494 305.68 39.5494 316.584C39.5494 327.488 30.6787 336.359 19.7747 336.359ZM19.7747 298.617C9.86473 298.617 1.80723 306.674 1.80723 316.584C1.80723 326.494 9.86473 334.552 19.7747 334.552C29.6847 334.552 37.7422 326.494 37.7422 316.584C37.7422 306.674 29.6847 298.617 19.7747 298.617Z" fill="#FF6B6C"/>
</g>
</g>
<g opacity="0.5">
<path d="M67.8486 123.362C60.8303 123.362 55.1223 117.654 55.1223 110.636C55.1223 103.618 60.8303 97.9097 67.8486 97.9097C74.8669 97.9097 80.575 103.618 80.575 110.636C80.575 117.654 74.8669 123.362 67.8486 123.362ZM67.8486 99.0694C61.4704 99.0694 56.282 104.258 56.282 110.636C56.282 117.014 61.4704 122.203 67.8486 122.203C74.2269 122.203 79.4153 117.014 79.4153 110.636C79.4153 104.258 74.2269 99.0694 67.8486 99.0694Z" fill="#B3B3B3"/>
</g>
</g>
<defs>
<clipPath id="clip0_12_170">
<rect width="587" height="551.298" fill="white" transform="translate(0 0.933594)"/>
</clipPath>
</defs>
</svg>
