<svg width="78" height="78" viewBox="0 0 78 78" fill="none" xmlns="http://www.w3.org/2000/svg">
<g clip-path="url(#clip0_36_914)">
<path d="M18.9665 40.3065H13.8167V42.9317H18.873V45.9238H13.8167V50.9189H10.7059V37.3108H18.9665V40.3065Z" fill="#231F20"/>
<path d="M27.8133 47.9269H32.6718V50.9189H24.7025V37.3108H27.8133V47.9269Z" fill="#231F20"/>
<path d="M37.9222 37.3145H41.033V50.9226H37.9222V37.3145Z" fill="#231F20"/>
<path d="M57.9424 50.9226H54.4037L52.1093 46.9955L49.8149 50.9226H46.2762L50.34 43.9423L46.4704 37.3145H50.0091L52.1093 40.9107L54.2095 37.3145H57.7482L53.8787 43.9423L57.9424 50.9226Z" fill="#231F20"/>
<path d="M14.7337 68.5585C13.6189 68.5585 12.6695 68.3032 11.8927 67.7889C11.1159 67.2783 10.5909 66.5842 10.314 65.7103L11.1087 65.2428C11.3281 65.9908 11.7453 66.5842 12.3602 67.0193C12.9752 67.4581 13.7663 67.6739 14.7337 67.6739C15.7119 67.6739 16.4635 67.4509 16.985 67.0014C17.51 66.5518 17.769 65.9728 17.769 65.2572C17.769 64.5883 17.5172 64.0776 17.0101 63.7216C16.5031 63.3656 15.7155 63.0131 14.6438 62.6679C14.2518 62.542 13.9677 62.4449 13.7879 62.3838C13.6081 62.3191 13.3528 62.222 13.0183 62.0889C12.6839 61.9559 12.4357 61.8372 12.2775 61.7365C12.1157 61.6322 11.9251 61.4955 11.6985 61.3229C11.4755 61.1503 11.3101 60.9741 11.2058 60.7979C11.1015 60.6181 11.0116 60.4059 10.9289 60.1577C10.8498 59.9096 10.8066 59.6363 10.8066 59.3378C10.8066 58.3596 11.1555 57.5756 11.8496 56.9823C12.5472 56.3889 13.4175 56.094 14.464 56.094C15.4062 56.094 16.2118 56.3313 16.8807 56.8025C17.5496 57.2736 18.0387 57.8849 18.3479 58.6329L17.5712 59.0645C16.9958 57.6727 15.96 56.9751 14.464 56.9751C13.6369 56.9751 12.9752 57.1944 12.4789 57.6296C11.9826 58.0683 11.7381 58.6257 11.7381 59.3054C11.7381 59.9599 11.9682 60.449 12.4285 60.7727C12.8889 61.0964 13.6441 61.4272 14.6906 61.7724C15.3595 61.9918 15.8773 62.1788 16.2513 62.3335C16.6253 62.4881 17.0281 62.7003 17.4597 62.9736C17.8912 63.2433 18.2041 63.567 18.4019 63.941C18.5961 64.315 18.6968 64.7501 18.6968 65.2428C18.6968 66.2426 18.3336 67.0481 17.6107 67.6523C16.8915 68.2564 15.9313 68.5585 14.7337 68.5585Z" fill="#231F20"/>
<path d="M31.1181 56.2844V57.1475H27.3205V68.3678H26.3891V57.1475H22.5879V56.2844H31.1181Z" fill="#231F20"/>
<path d="M45.4636 66.7351C44.2552 67.9506 42.7808 68.5548 41.0438 68.5548C39.3068 68.5548 37.8324 67.947 36.624 66.7351C35.4157 65.5195 34.8115 64.0523 34.8115 62.3261C34.8115 60.5999 35.4157 59.129 36.624 57.9171C37.8324 56.7016 39.3068 56.0974 41.0438 56.0974C42.7808 56.0974 44.2552 56.7052 45.4636 57.9171C46.6719 59.1326 47.2761 60.5999 47.2761 62.3261C47.2761 64.0523 46.6719 65.5231 45.4636 66.7351ZM37.2713 66.1165C38.2999 67.1594 39.5585 67.6773 41.0438 67.6773C42.529 67.6773 43.7841 67.1558 44.8162 66.1165C45.8448 65.0736 46.3626 63.8113 46.3626 62.3261C46.3626 60.8408 45.8484 59.5786 44.8162 58.5357C43.7877 57.4927 42.529 56.9749 41.0438 56.9749C39.5585 56.9749 38.2999 57.4963 37.2713 58.5357C36.2428 59.5786 35.725 60.8408 35.725 62.3261C35.7286 63.8113 36.2428 65.0736 37.2713 66.1165Z" fill="#231F20"/>
<path d="M58.3596 68.5585C56.5399 68.5585 55.0403 67.958 53.8536 66.7532C52.6668 65.5521 52.077 64.074 52.077 62.3263C52.077 60.5785 52.6704 59.1004 53.8536 57.8993C55.0403 56.6982 56.5399 56.094 58.3596 56.094C59.4637 56.094 60.4778 56.3565 61.3985 56.878C62.3191 57.403 63.0311 58.1079 63.5382 58.9926L62.7255 59.4601C62.3227 58.7121 61.7293 58.1115 60.9489 57.6548C60.1649 57.2016 59.3019 56.9715 58.3596 56.9715C56.7953 56.9715 55.5078 57.4857 54.5009 58.5179C53.4939 59.5464 52.9905 60.8158 52.9905 62.3227C52.9905 63.8295 53.4939 65.099 54.5009 66.1275C55.5078 67.156 56.7953 67.6739 58.3596 67.6739C59.3019 67.6739 60.1721 67.4437 60.9669 66.9834C61.7617 66.5231 62.3587 65.9081 62.7614 65.1349L63.5742 65.6024C63.0779 66.5015 62.3658 67.2171 61.4344 67.753C60.4994 68.2888 59.4745 68.5585 58.3596 68.5585Z" fill="#231F20"/>
<path d="M77.1068 68.3678H75.8804L69.8208 62.4124V68.3678H68.9073V56.2844H69.8208V61.9125L75.7078 56.2844H76.9341L70.8241 62.1535L77.1068 68.3678Z" fill="#231F20"/>
<path d="M26.7703 74.1111H0.704834V77.808H26.7703V74.1111Z" fill="#FF6B6C"/>
<path d="M77.1144 50.9359L77.1144 -0.00109863L73.4175 -0.00109863L73.4175 50.9359H77.1144Z" fill="#005589"/>
<path d="M4.21289 32.6562L4.21289 0.00964355L0.70297 0.00964355L0.70297 32.6562H4.21289Z" fill="#FFC145"/>
<path d="M0.716675 32.4446L0.716675 77.0667H4.2266L4.2266 32.4446H0.716675Z" fill="#FF6B6C"/>
<path d="M75.9164 0.00354004H47.9521V3.70047H75.9164V0.00354004Z" fill="#005589"/>
<path d="M27.1659 72.3884H5.6676V72.7373H27.1659V72.3884Z" fill="#FF6B6C"/>
<path d="M71.8003 50.9188L71.8003 5.04883H71.4515L71.4515 50.9188H71.8003Z" fill="#005589"/>
<path d="M5.99878 32.7136L5.99878 5.02979H5.66793L5.66793 32.7136H5.99878Z" fill="#FFC145"/>
<path d="M5.66992 32.5477L5.66992 72.7356H6.00077L6.00077 32.5477H5.66992Z" fill="#FF6B6C"/>
<path d="M71.7988 5.03101H48.0061V5.37984H71.7988V5.03101Z" fill="#005589"/>
<path d="M48.024 0.00305176H0.683228V3.69638H48.024V0.00305176Z" fill="#FFC145"/>
<path d="M48.0707 5.03101H5.67834V5.37984H48.0707V5.03101Z" fill="#FFC145"/>
</g>
<defs>
<clipPath id="clip0_36_914">
<rect width="77.6786" height="77.6786" fill="white"/>
</clipPath>
</defs>
</svg>
